<?xml version="1.0" encoding="utf-8"?>
<!-- Generator: Adobe Illustrator 18.1.0, SVG Export Plug-In . SVG Version: 6.00 Build 0)  -->
<svg version="1.1" id="Layer_1" xmlns="http://www.w3.org/2000/svg" xmlns:xlink="http://www.w3.org/1999/xlink" x="0px" y="0px"
	 viewBox="0 0 897 301" enable-background="new 0 0 897 301" xml:space="preserve">
<g>
	<defs>
		<rect id="SVGID_1_" x="-80" y="-124" width="1024" height="550"/>
	</defs>
	<use xlink:href="#SVGID_1_"  overflow="visible" fill="#BBBDBF"/>
	<clipPath id="SVGID_2_">
		<use xlink:href="#SVGID_1_"  overflow="visible"/>
	</clipPath>
	<rect x="-80" y="-124" clip-path="url(#SVGID_2_)" fill="#231F20" width="1024" height="550"/>
	<g display="none" clip-path="url(#SVGID_2_)">
		<text transform="matrix(1 0 0 1 394.1646 248.4951)" display="inline"><tspan x="0" y="0" fill="#BBBDBF" font-family="'Avenir-Book'" font-size="38.2094" letter-spacing="-1">le</tspan><tspan x="28.2" y="0" fill="#BBBDBF" font-family="'Avenir-Book'" font-size="38.2094" letter-spacing="-1">a</tspan><tspan x="46.9" y="0" fill="#BBBDBF" font-family="'Avenir-Book'" font-size="38.2094" letter-spacing="-1">g</tspan><tspan x="69.1" y="0" fill="#BBBDBF" font-family="'Avenir-Book'" font-size="38.2094" letter-spacing="-1">u</tspan><tspan x="89.2" y="0" fill="#BBBDBF" font-family="'Avenir-Book'" font-size="38.2094" letter-spacing="-1">e</tspan><tspan x="109.4" y="0" fill="#BBBDBF" font-family="'Avenir-Book'" font-size="38.2094" letter-spacing="-1"> </tspan><tspan x="118.8" y="0" fill="#BBBDBF" font-family="'Avenir-Book'" font-size="38.2094" letter-spacing="-1">ma</tspan><tspan x="169" y="0" fill="#BBBDBF" font-family="'Avenir-Book'" font-size="38.2094" letter-spacing="-1">na</tspan><tspan x="207.8" y="0" fill="#BBBDBF" font-family="'Avenir-Book'" font-size="38.2094" letter-spacing="-1">g</tspan><tspan x="230" y="0" fill="#BBBDBF" font-family="'Avenir-Book'" font-size="38.2094" letter-spacing="-1">e</tspan><tspan x="250.1" y="0" fill="#BBBDBF" font-family="'Avenir-Book'" font-size="38.2094" letter-spacing="-1">me</tspan><tspan x="301.7" y="0" fill="#BBBDBF" font-family="'Avenir-Book'" font-size="38.2094" letter-spacing="-1">n</tspan><tspan x="321.8" y="0" fill="#BBBDBF" font-family="'Avenir-Book'" font-size="38.2094" letter-spacing="-1">t syst</tspan><tspan x="402.1" y="0" fill="#BBBDBF" font-family="'Avenir-Book'" font-size="38.2094" letter-spacing="-1">e</tspan><tspan x="422.2" y="0" fill="#BBBDBF" font-family="'Avenir-Book'" font-size="38.2094">m</tspan></text>
	</g>
	<g clip-path="url(#SVGID_2_)">
		<defs>
			<path id="SVGID_3_" d="M411.5,174.6l28.2,25.3c4.4,4.3,9.1,7.4,18.6,7.4H846v-9.5H459.6c-9.3,0-12.3-4-16-7.5L420.8,168
				L411.5,174.6z"/>
		</defs>
		<clipPath id="SVGID_4_">
			<use xlink:href="#SVGID_3_"  overflow="visible"/>
		</clipPath>
		<defs>
			<filter id="Adobe_OpacityMaskFilter" filterUnits="userSpaceOnUse" x="391.9" y="-49.2" width="473.7" height="473.7">
				<feColorMatrix  type="matrix" values="1 0 0 0 0  0 1 0 0 0  0 0 1 0 0  0 0 0 1 0"/>
			</filter>
		</defs>
		<mask maskUnits="userSpaceOnUse" x="391.9" y="-49.2" width="473.7" height="473.7" id="SVGID_5_">
			<g filter="url(#Adobe_OpacityMaskFilter)">
				
					<linearGradient id="SVGID_6_" gradientUnits="userSpaceOnUse" x1="-80.0006" y1="425.9969" x2="-79.0006" y2="425.9969" gradientTransform="matrix(233.5658 233.5658 233.5658 -233.5658 -80299.5 118256.0078)">
					<stop  offset="0" style="stop-color:#000000"/>
					<stop  offset="7.168275e-03" style="stop-color:#121212"/>
					<stop  offset="2.830151e-02" style="stop-color:#444444"/>
					<stop  offset="5.110148e-02" style="stop-color:#707070"/>
					<stop  offset="7.504544e-02" style="stop-color:#979797"/>
					<stop  offset="0.1004" style="stop-color:#B7B7B7"/>
					<stop  offset="0.1277" style="stop-color:#D1D1D1"/>
					<stop  offset="0.1575" style="stop-color:#E6E6E6"/>
					<stop  offset="0.1912" style="stop-color:#F4F4F4"/>
					<stop  offset="0.2321" style="stop-color:#FCFCFC"/>
					<stop  offset="0.3" style="stop-color:#FFFFFF"/>
					<stop  offset="1" style="stop-color:#FFFFFF"/>
				</linearGradient>
				<polygon clip-path="url(#SVGID_4_)" fill="url(#SVGID_6_)" points="628.8,-49.2 865.6,187.7 628.8,424.5 391.9,187.7 				"/>
			</g>
		</mask>
		
			<linearGradient id="SVGID_7_" gradientUnits="userSpaceOnUse" x1="-79.9991" y1="425.9979" x2="-78.9992" y2="425.9979" gradientTransform="matrix(233.5658 233.5658 233.5658 -233.5658 -80299.8438 118256.1328)">
			<stop  offset="0" style="stop-color:#D99F66"/>
			<stop  offset="2.254545e-02" style="stop-color:#E0A164"/>
			<stop  offset="8.771288e-02" style="stop-color:#EEA661"/>
			<stop  offset="0.1671" style="stop-color:#F6A960"/>
			<stop  offset="0.3" style="stop-color:#F9AA5F"/>
			<stop  offset="1" style="stop-color:#F9AA5F"/>
		</linearGradient>
		<polygon clip-path="url(#SVGID_4_)" mask="url(#SVGID_5_)" fill="url(#SVGID_7_)" points="628.8,-49.2 865.6,187.7 628.8,424.5 
			391.9,187.7 		"/>
	</g>
	<g clip-path="url(#SVGID_2_)">
		<defs>
			<path id="SVGID_8_" d="M47.8,197.2V208h222.6c15.9,0,18.6,10,17,20.4h11.2c0-14.8-1.5-31.2-28.2-31.2H47.8z"/>
		</defs>
		<clipPath id="SVGID_9_">
			<use xlink:href="#SVGID_8_"  overflow="visible"/>
		</clipPath>
		<defs>
			<filter id="Adobe_OpacityMaskFilter_1_" filterUnits="userSpaceOnUse" x="32.2" y="71.9" width="282" height="282">
				<feColorMatrix  type="matrix" values="1 0 0 0 0  0 1 0 0 0  0 0 1 0 0  0 0 0 1 0"/>
			</filter>
		</defs>
		<mask maskUnits="userSpaceOnUse" x="32.2" y="71.9" width="282" height="282" id="SVGID_10_">
			<g filter="url(#Adobe_OpacityMaskFilter_1_)">
				
					<linearGradient id="SVGID_11_" gradientUnits="userSpaceOnUse" x1="-79.9976" y1="425.9897" x2="-78.9977" y2="425.9897" gradientTransform="matrix(140.9797 140.9797 140.9797 -140.9797 -48675.125 71476.2812)">
					<stop  offset="0" style="stop-color:#FFFFFF"/>
					<stop  offset="0.7" style="stop-color:#FFFFFF"/>
					<stop  offset="0.7182" style="stop-color:#E5E5E5"/>
					<stop  offset="0.7591" style="stop-color:#AFAFAF"/>
					<stop  offset="0.8004" style="stop-color:#818181"/>
					<stop  offset="0.8414" style="stop-color:#5C5C5C"/>
					<stop  offset="0.8821" style="stop-color:#3F3F3F"/>
					<stop  offset="0.9223" style="stop-color:#2A2A2A"/>
					<stop  offset="0.9619" style="stop-color:#1E1E1E"/>
					<stop  offset="1" style="stop-color:#1A1A1A"/>
				</linearGradient>
				<polygon clip-path="url(#SVGID_9_)" fill="url(#SVGID_11_)" points="173.2,71.9 314.2,212.8 173.2,353.8 32.2,212.8 				"/>
			</g>
		</mask>
		
			<linearGradient id="SVGID_12_" gradientUnits="userSpaceOnUse" x1="-80.0019" y1="425.9849" x2="-79.0019" y2="425.9849" gradientTransform="matrix(140.9798 140.9798 140.9798 -140.9798 -48673.8945 71476.25)">
			<stop  offset="0" style="stop-color:#7297CE"/>
			<stop  offset="0.7" style="stop-color:#7297CE"/>
			<stop  offset="1" style="stop-color:#7297CE"/>
		</linearGradient>
		<polygon clip-path="url(#SVGID_9_)" mask="url(#SVGID_10_)" fill="url(#SVGID_12_)" points="173.2,71.9 314.2,212.8 173.2,353.8 
			32.2,212.8 		"/>
	</g>
	<g clip-path="url(#SVGID_2_)">
		<defs>
			<polygon id="SVGID_13_" points="364.8,120.9 401,165.6 402.5,150.2 367.1,106.5 			"/>
		</defs>
		<clipPath id="SVGID_14_">
			<use xlink:href="#SVGID_13_"  overflow="visible"/>
		</clipPath>
		<defs>
			<filter id="Adobe_OpacityMaskFilter_2_" filterUnits="userSpaceOnUse" x="364.8" y="106.5" width="37.8" height="59">
				<feColorMatrix  type="matrix" values="1 0 0 0 0  0 1 0 0 0  0 0 1 0 0  0 0 0 1 0"/>
			</filter>
		</defs>
		<mask maskUnits="userSpaceOnUse" x="364.8" y="106.5" width="37.8" height="59" id="SVGID_15_">
			<g filter="url(#Adobe_OpacityMaskFilter_2_)">
				
					<linearGradient id="SVGID_16_" gradientUnits="userSpaceOnUse" x1="-80.0056" y1="425.9939" x2="-79.0056" y2="425.9939" gradientTransform="matrix(37.754 0 0 -37.754 3385.2859 16219.0283)">
					<stop  offset="0" style="stop-color:#000000"/>
					<stop  offset="0.1" style="stop-color:#000000"/>
					<stop  offset="0.1424" style="stop-color:#090909"/>
					<stop  offset="0.2117" style="stop-color:#212121"/>
					<stop  offset="0.2992" style="stop-color:#494949"/>
					<stop  offset="0.4016" style="stop-color:#808080"/>
					<stop  offset="0.5149" style="stop-color:#C6C6C6"/>
					<stop  offset="0.6" style="stop-color:#FFFFFF"/>
					<stop  offset="1" style="stop-color:#FFFFFF"/>
				</linearGradient>
				<rect x="364.8" y="106.5" clip-path="url(#SVGID_14_)" fill="url(#SVGID_16_)" width="37.8" height="59"/>
			</g>
		</mask>
		
			<linearGradient id="SVGID_17_" gradientUnits="userSpaceOnUse" x1="-80.0056" y1="425.9939" x2="-79.0056" y2="425.9939" gradientTransform="matrix(37.754 0 0 -37.754 3385.2859 16219.0283)">
			<stop  offset="0" style="stop-color:#FFFFFF"/>
			<stop  offset="0.1" style="stop-color:#FFFFFF"/>
			<stop  offset="0.6" style="stop-color:#FFFFFF"/>
			<stop  offset="1" style="stop-color:#FFFFFF"/>
		</linearGradient>
		<rect x="364.8" y="106.5" clip-path="url(#SVGID_14_)" mask="url(#SVGID_15_)" fill="url(#SVGID_17_)" width="37.8" height="59"/>
	</g>
	<g clip-path="url(#SVGID_2_)">
		<defs>
			<rect id="SVGID_18_" x="-80" y="-124" width="1024" height="550"/>
		</defs>
		<clipPath id="SVGID_19_">
			<use xlink:href="#SVGID_18_"  overflow="visible"/>
		</clipPath>
		<polygon clip-path="url(#SVGID_19_)" fill="#FFFFFF" points="351.9,204.7 303.4,171.2 313.1,165.1 359.9,196.1 		"/>
		<path clip-path="url(#SVGID_19_)" fill="#FFFFFF" d="M377.7,136.2c0,6.4-1.1,12.3-3.4,17.8c-2.2,5.4-5.4,10.2-9.4,14.2
			c-4,4-8.7,7.1-14.3,9.4c-5.5,2.2-11.6,3.4-18.2,3.4c-6.5,0-12.6-1.1-18.1-3.4c-5.5-2.2-10.3-5.4-14.3-9.4c-4-4-7.1-8.7-9.3-14.2
			c-2.2-5.4-3.4-11.4-3.4-17.8c0-6.4,1.1-12.3,3.4-17.8c2.2-5.4,5.4-10.2,9.3-14.2c4-4,8.7-7.1,14.3-9.4c5.5-2.2,11.5-3.4,18.1-3.4
			c6.7,0,12.7,1.1,18.2,3.4c5.5,2.2,10.3,5.4,14.3,9.4c4,4,7.1,8.7,9.4,14.2C376.6,123.9,377.7,129.8,377.7,136.2 M364.6,136.2
			c0-4.7-0.8-9.1-2.3-13.3c-1.5-4.1-3.7-7.7-6.4-10.7c-2.8-3-6.1-5.4-10.1-7.2c-3.9-1.8-8.4-2.6-13.3-2.6c-5,0-9.4,0.9-13.3,2.6
			c-3.9,1.8-7.3,4.1-10,7.2c-2.7,3-4.8,6.6-6.4,10.7c-1.5,4.1-2.3,8.5-2.3,13.3s0.8,9.1,2.3,13.3c1.5,4.1,3.6,7.7,6.4,10.7
			c2.7,3,6.1,5.4,10,7.2c3.9,1.8,8.4,2.6,13.3,2.6c5,0,9.4-0.9,13.3-2.6c3.9-1.8,7.3-4.1,10.1-7.2c2.8-3,4.9-6.6,6.4-10.7
			C363.8,145.4,364.6,141,364.6,136.2"/>
		<path clip-path="url(#SVGID_19_)" fill="#FFFFFF" d="M480.8,136.2c0,6.4-1.1,12.3-3.4,17.8c-2.2,5.4-5.4,10.2-9.4,14.2
			c-4,4-8.7,7.1-14.3,9.4c-5.5,2.2-11.6,3.4-18.2,3.4c-6.5,0-12.6-1.1-18.1-3.4c-5.5-2.2-10.3-5.4-14.3-9.4c-4-4-7.1-8.7-9.4-14.2
			c-2.2-5.4-3.4-11.4-3.4-17.8c0-6.4,1.1-12.3,3.4-17.8c2.2-5.4,5.4-10.2,9.4-14.2c4-4,8.7-7.1,14.3-9.4c5.5-2.2,11.5-3.4,18.1-3.4
			c6.7,0,12.7,1.1,18.2,3.4c5.5,2.2,10.3,5.4,14.3,9.4c4,4,7.1,8.7,9.4,14.2C479.7,123.9,480.8,129.8,480.8,136.2 M467.7,136.2
			c0-4.7-0.8-9.1-2.3-13.3c-1.5-4.1-3.7-7.7-6.4-10.7c-2.8-3-6.1-5.4-10.1-7.2c-3.9-1.8-8.4-2.6-13.3-2.6c-5,0-9.4,0.9-13.3,2.6
			c-3.9,1.8-7.3,4.1-10,7.2c-2.7,3-4.8,6.6-6.4,10.7c-1.5,4.1-2.3,8.5-2.3,13.3s0.8,9.1,2.3,13.3c1.5,4.1,3.6,7.7,6.4,10.7
			c2.7,3,6.1,5.4,10,7.2c3.9,1.8,8.4,2.6,13.3,2.6c5,0,9.4-0.9,13.3-2.6c3.9-1.8,7.3-4.1,10.1-7.2c2.8-3,4.9-6.6,6.4-10.7
			C467,145.4,467.7,141,467.7,136.2"/>
		<path clip-path="url(#SVGID_19_)" fill="#FFFFFF" d="M377.7,232.3c0,6.4-1.1,12.3-3.4,17.8c-2.2,5.4-5.4,10.2-9.4,14.2
			c-4,4-8.7,7.1-14.3,9.4c-5.5,2.2-11.6,3.4-18.2,3.4c-6.5,0-12.6-1.1-18.1-3.4c-5.5-2.2-10.3-5.4-14.3-9.4c-4-4-7.1-8.7-9.3-14.2
			c-2.2-5.4-3.4-11.4-3.4-17.8c0-6.4,1.1-12.3,3.4-17.8c2.2-5.4,5.4-10.2,9.3-14.2c4-4,8.7-7.1,14.3-9.4c5.5-2.2,11.5-3.4,18.1-3.4
			c6.7,0,12.7,1.1,18.2,3.4c5.5,2.2,10.3,5.4,14.3,9.4c4,4,7.1,8.7,9.4,14.2C376.6,220,377.7,225.9,377.7,232.3 M364.6,232.3
			c0-4.7-0.8-9.1-2.3-13.3c-1.5-4.1-3.7-7.7-6.4-10.7c-2.8-3-6.1-5.4-10.1-7.2c-3.9-1.8-8.4-2.6-13.3-2.6c-5,0-9.4,0.9-13.3,2.6
			c-3.9,1.8-7.3,4.1-10,7.2c-2.7,3-4.8,6.6-6.4,10.7c-1.5,4.1-2.3,8.5-2.3,13.3s0.8,9.1,2.3,13.3c1.5,4.1,3.6,7.7,6.4,10.7
			c2.7,3,6.1,5.4,10,7.2c3.9,1.8,8.4,2.6,13.3,2.6c5,0,9.4-0.9,13.3-2.6c3.9-1.8,7.3-4.1,10.1-7.2c2.8-3,4.9-6.6,6.4-10.7
			C363.8,241.5,364.6,237,364.6,232.3"/>
		<polygon clip-path="url(#SVGID_19_)" fill="#FFFFFF" points="61.3,179.4 47.8,179.4 47.8,46.5 128,46.5 128,58.9 61.3,58.9 
			61.3,104.1 123.3,104.1 123.3,116.5 61.3,116.5 		"/>
		<path clip-path="url(#SVGID_19_)" fill="#FFFFFF" d="M194.7,125.5v-2.3c0-15.1-7.5-22.7-22.5-22.7c-10.3,0-19.2,3.4-26.9,10.3
			l-7.5-8.8c8.3-8.5,20.7-12.8,37.2-12.8c4.3,0,8.4,0.6,12.3,1.9c3.9,1.3,7.4,3.2,10.2,5.7c2.9,2.6,5.2,5.8,6.9,9.7
			c1.8,3.9,2.6,8.5,2.6,13.9v39.2c0,3.4,0.2,6.9,0.5,10.6c0.3,3.7,0.7,6.7,1,9.1h-12c-0.4-2.1-0.7-4.4-0.8-6.9
			c-0.2-2.5-0.3-4.9-0.3-7.3H195c-3.6,5.9-7.9,10.1-12.9,12.7c-4.9,2.6-11,3.9-18.1,3.9c-3.9,0-7.6-0.5-11.3-1.6
			c-3.6-1.1-6.9-2.7-9.7-4.9c-2.8-2.2-5.1-4.9-6.8-8.1c-1.7-3.2-2.5-6.9-2.5-11.2c0-7.1,1.8-12.7,5.5-16.8c3.7-4.1,8.3-7.1,13.9-9.1
			c5.6-2,11.5-3.3,17.8-3.8c6.3-0.5,12.1-0.8,17.4-0.8H194.7z M188.3,135.7c-3.1,0-7,0.2-11.7,0.5c-4.7,0.3-9.2,1.1-13.5,2.3
			c-4.3,1.2-8,3-11.1,5.5c-3.1,2.5-4.6,5.9-4.6,10.3c0,2.9,0.6,5.4,1.8,7.4c1.2,2.1,2.8,3.8,4.8,5.1c2,1.3,4.2,2.3,6.7,2.8
			c2.4,0.6,4.9,0.8,7.4,0.8c4.5,0,8.4-0.8,11.7-2.3c3.3-1.5,6.1-3.5,8.4-6.1c2.3-2.6,3.9-5.6,5-9c1.1-3.4,1.6-7.1,1.6-11v-6.4H188.3
			z"/>
		<path clip-path="url(#SVGID_19_)" fill="#FFFFFF" d="M230.5,118.9c0-3.9-0.1-7.8-0.3-11.8c-0.2-4-0.3-9.2-0.5-15.6H242v16.3h0.4
			c0.9-2.4,2.1-4.7,3.8-6.9c1.6-2.2,3.6-4.2,5.9-5.9c2.3-1.8,5-3.2,8.1-4.2c3.1-1.1,6.5-1.6,10.4-1.6c3.5,0,6.6,0.4,9.2,1.1
			l-2.4,12.2c-1.6-0.6-4-0.9-7.1-0.9c-4.8,0-8.8,0.9-12.2,2.7c-3.4,1.8-6.2,4.1-8.4,6.9c-2.3,2.8-3.9,5.9-5,9.1
			c-1.1,3.3-1.6,6.4-1.6,9.4v49.6h-12.4V118.9z"/>
		<path clip-path="url(#SVGID_19_)" fill="#FFFFFF" d="M524.7,179.4h-13.5V46.5h40.9c13.5,0,24.2,2.9,32,8.8
			c7.8,5.9,11.7,14.8,11.7,26.7c0,9.3-2.9,17.1-8.7,23.4c-5.8,6.3-14.2,10-25.3,11l38.3,63.1h-16.5l-36.4-61.8h-22.5V179.4z
			 M524.7,105.2h24c6,0,11.1-0.6,15.3-1.9c4.2-1.2,7.5-2.9,10-5c2.5-2.1,4.3-4.5,5.4-7.3c1.1-2.8,1.7-5.9,1.7-9.1
			c0-3.1-0.6-6.1-1.7-8.9c-1.1-2.8-2.9-5.3-5.4-7.4c-2.5-2.1-5.9-3.8-10-5c-4.2-1.2-9.3-1.8-15.3-1.8h-24V105.2z"/>
		<path clip-path="url(#SVGID_19_)" fill="#FFFFFF" d="M668.8,125.5v-2.3c0-15.1-7.5-22.7-22.5-22.7c-10.3,0-19.2,3.4-26.9,10.3
			l-7.5-8.8c8.3-8.5,20.7-12.8,37.2-12.8c4.3,0,8.4,0.6,12.3,1.9c3.9,1.3,7.4,3.2,10.2,5.7c2.9,2.6,5.2,5.8,6.9,9.7
			c1.8,3.9,2.6,8.5,2.6,13.9v39.2c0,3.4,0.2,6.9,0.5,10.6c0.3,3.7,0.7,6.7,1,9.1h-12c-0.4-2.1-0.7-4.4-0.8-6.9
			c-0.2-2.5-0.3-4.9-0.3-7.3h-0.4c-3.6,5.9-7.9,10.1-12.9,12.7c-4.9,2.6-11,3.9-18.1,3.9c-3.9,0-7.6-0.5-11.3-1.6
			c-3.6-1.1-6.9-2.7-9.7-4.9c-2.8-2.2-5.1-4.9-6.8-8.1c-1.7-3.2-2.5-6.9-2.5-11.2c0-7.1,1.8-12.7,5.5-16.8c3.7-4.1,8.3-7.1,13.9-9.1
			c5.6-2,11.5-3.3,17.8-3.8c6.3-0.5,12.1-0.8,17.4-0.8H668.8z M662.4,135.7c-3.1,0-7,0.2-11.7,0.5c-4.7,0.3-9.2,1.1-13.5,2.3
			c-4.3,1.2-8,3-11.1,5.5c-3.1,2.5-4.6,5.9-4.6,10.3c0,2.9,0.6,5.4,1.8,7.4c1.2,2.1,2.8,3.8,4.8,5.1c2,1.3,4.2,2.3,6.7,2.8
			c2.4,0.6,4.9,0.8,7.4,0.8c4.5,0,8.4-0.8,11.7-2.3c3.3-1.5,6.1-3.5,8.4-6.1c2.3-2.6,3.9-5.6,5-9c1.1-3.4,1.6-7.1,1.6-11v-6.4H662.4
			z"/>
		<path clip-path="url(#SVGID_19_)" fill="#FFFFFF" d="M749.1,102.8h-25.3v51.8c0,3.3,0.3,5.9,0.9,8c0.6,2.1,1.5,3.7,2.6,4.8
			c1.1,1.1,2.5,1.9,4,2.3c1.6,0.4,3.3,0.7,5.2,0.7c2.1,0,4.3-0.3,6.6-0.9c2.3-0.6,4.3-1.4,6.2-2.4l0.6,11.5
			c-4.6,2.1-10.2,3.2-16.7,3.2c-2.4,0-4.9-0.3-7.4-0.9c-2.6-0.6-4.9-1.8-7-3.6c-2.1-1.8-3.9-4.1-5.3-7.1c-1.4-3-2.1-6.9-2.1-11.8
			v-55.4h-18.6V91.5h18.6V66.7h12.4v24.8h25.3V102.8z"/>
		<path clip-path="url(#SVGID_19_)" fill="#FFFFFF" d="M772.7,138.9c0.4,4.4,1.4,8.5,3.2,12.4c1.8,3.9,4.1,7.2,6.9,10
			c2.9,2.8,6.2,5,10,6.7c3.8,1.6,7.8,2.4,12.2,2.4c6.6,0,12.4-1.5,17.2-4.6c4.8-3.1,8.5-6.6,11-10.6l9.6,7.9
			c-5.3,6.6-11,11.4-17.4,14.3c-6.3,2.9-13.1,4.3-20.4,4.3c-6.5,0-12.6-1.2-18.1-3.5c-5.6-2.3-10.4-5.5-14.4-9.7
			c-4-4.1-7.2-9-9.5-14.6c-2.3-5.6-3.5-11.8-3.5-18.4c0-6.6,1.1-12.8,3.4-18.4c2.3-5.6,5.4-10.5,9.4-14.6c4-4.1,8.7-7.4,14.1-9.7
			c5.4-2.3,11.2-3.5,17.5-3.5c6.6,0,12.6,1.2,17.8,3.6c5.3,2.4,9.7,5.5,13.2,9.5c3.6,3.9,6.3,8.6,8.2,13.9c1.9,5.3,2.8,11,2.8,17
			v5.6H772.7z M832.5,128.7c0-8.4-2.5-15.2-7.5-20.4c-5-5.2-12-7.8-21-7.8c-4,0-7.9,0.8-11.6,2.3c-3.8,1.6-7,3.7-9.9,6.3
			c-2.8,2.6-5.1,5.6-6.8,9c-1.7,3.4-2.5,6.9-2.5,10.5H832.5z"/>
	</g>
</g>
<rect id="_x3C_Slice_x3E_" fill="none" width="897" height="301"/>
</svg>
